<svg width="206" height="204" viewBox="0 0 206 204" fill="none"
    xmlns="http://www.w3.org/2000/svg">
    <circle cx="102" cy="102" r="102" fill="#292B2C"/>
    <path d="M19.68 150C18.72 150 17.856 149.664 17.088 148.992C16.416 148.224 16.08 147.36 16.08 146.4V52.8C16.08 51.744 16.416 50.88 17.088 50.208C17.856 49.536 18.72 49.2 19.68 49.2H58.848C71.424 49.2 81.216 52.08 88.224 57.84C95.328 63.504 98.88 71.568 98.88 82.032C98.88 88.752 97.296 94.464 94.128 99.168C90.96 103.872 86.592 107.472 81.024 109.968L100.752 145.392C101.04 145.968 101.184 146.496 101.184 146.976C101.184 147.744 100.848 148.464 100.176 149.136C99.6 149.712 98.928 150 98.16 150H79.008C76.224 150 74.256 148.704 73.104 146.112L56.688 114.432H42V146.4C42 147.456 41.616 148.32 40.848 148.992C40.176 149.664 39.312 150 38.256 150H19.68ZM58.56 93.984C62.976 93.984 66.336 92.928 68.64 90.816C70.944 88.608 72.096 85.584 72.096 81.744C72.096 77.904 70.944 74.88 68.64 72.672C66.432 70.368 63.072 69.216 58.56 69.216H42V93.984H58.56ZM112.043 150C111.083 150 110.219 149.664 109.451 148.992C108.779 148.224 108.443 147.36 108.443 146.4V52.8C108.443 51.744 108.779 50.88 109.451 50.208C110.219 49.536 111.083 49.2 112.043 49.2H155.963C168.059 49.2 177.035 51.696 182.891 56.688C188.843 61.584 191.819 68.592 191.819 77.712C191.819 82.512 190.571 86.592 188.075 89.952C185.675 93.216 182.939 95.616 179.867 97.152C183.803 98.976 187.115 101.904 189.803 105.936C192.491 109.968 193.835 114.48 193.835 119.472C193.835 129.072 190.667 136.56 184.331 141.936C177.995 147.312 168.971 150 157.259 150H112.043ZM153.083 89.232C156.923 89.232 159.851 88.272 161.867 86.352C163.883 84.336 164.891 81.696 164.891 78.432C164.891 75.264 163.883 72.72 161.867 70.8C159.851 68.88 156.923 67.92 153.083 67.92H134.363V89.232H153.083ZM154.379 131.28C158.315 131.28 161.387 130.128 163.595 127.824C165.803 125.52 166.907 122.736 166.907 119.472C166.907 116.016 165.803 113.184 163.595 110.976C161.387 108.672 158.315 107.52 154.379 107.52H134.363V131.28H154.379Z" fill="#FF0266"/>
</svg>
