<svg width="206" height="171" viewBox="0 0 206 171" fill="none"
    xmlns="http://www.w3.org/2000/svg">
    <path d="M25.68 135C24.72 135 23.856 134.664 23.088 133.992C22.416 133.224 22.08 132.36 22.08 131.4V37.8C22.08 36.744 22.416 35.88 23.088 35.208C23.856 34.536 24.72 34.2 25.68 34.2H64.848C77.424 34.2 87.216 37.08 94.224 42.84C101.328 48.504 104.88 56.568 104.88 67.032C104.88 73.752 103.296 79.464 100.128 84.168C96.96 88.872 92.592 92.472 87.024 94.968L106.752 130.392C107.04 130.968 107.184 131.496 107.184 131.976C107.184 132.744 106.848 133.464 106.176 134.136C105.6 134.712 104.928 135 104.16 135H85.008C82.224 135 80.256 133.704 79.104 131.112L62.688 99.432H48V131.4C48 132.456 47.616 133.32 46.848 133.992C46.176 134.664 45.312 135 44.256 135H25.68ZM64.56 78.984C68.976 78.984 72.336 77.928 74.64 75.816C76.944 73.608 78.096 70.584 78.096 66.744C78.096 62.904 76.944 59.88 74.64 57.672C72.432 55.368 69.072 54.216 64.56 54.216H48V78.984H64.56ZM118.043 135C117.083 135 116.219 134.664 115.451 133.992C114.779 133.224 114.443 132.36 114.443 131.4V37.8C114.443 36.744 114.779 35.88 115.451 35.208C116.219 34.536 117.083 34.2 118.043 34.2H161.963C174.059 34.2 183.035 36.696 188.891 41.688C194.843 46.584 197.819 53.592 197.819 62.712C197.819 67.512 196.571 71.592 194.075 74.952C191.675 78.216 188.939 80.616 185.867 82.152C189.803 83.976 193.115 86.904 195.803 90.936C198.491 94.968 199.835 99.48 199.835 104.472C199.835 114.072 196.667 121.56 190.331 126.936C183.995 132.312 174.971 135 163.259 135H118.043ZM159.083 74.232C162.923 74.232 165.851 73.272 167.867 71.352C169.883 69.336 170.891 66.696 170.891 63.432C170.891 60.264 169.883 57.72 167.867 55.8C165.851 53.88 162.923 52.92 159.083 52.92H140.363V74.232H159.083ZM160.379 116.28C164.315 116.28 167.387 115.128 169.595 112.824C171.803 110.52 172.907 107.736 172.907 104.472C172.907 101.016 171.803 98.184 169.595 95.976C167.387 93.672 164.315 92.52 160.379 92.52H140.363V116.28H160.379Z" fill="white"/>
    <circle cx="24" cy="36" r="24" fill="#FF0266"/>
</svg>
